<?xml version="1.0" encoding="UTF-8"?>
<svg id="Capa_1" data-name="Capa 1" xmlns="http://www.w3.org/2000/svg" xmlns:xlink="http://www.w3.org/1999/xlink" viewBox="0 0 425.09 143.24">
  <defs>
    <style>
      .cls-1 {
        fill: #000;
      }

      .cls-1, .cls-2, .cls-3, .cls-4 {
        stroke-width: 0px;
      }

      .cls-2 {
        fill: none;
      }

      .cls-5 {
        clip-path: url(#clippath);
      }

      .cls-3 {
        fill: #10295b;
      }

      .cls-4 {
        fill: #fff;
      }
    </style>
    <clipPath id="clippath">
      <rect class="cls-2" x="357.89" y="279.5" width="1366" height="768"/>
    </clipPath>
  </defs>
  <g>
    <g>
      <rect class="cls-1" x="165.26" y="-64.73" width="94.56" height="276.28" transform="translate(138.58 285.76) rotate(-89.85)"/>
      <g>
        <path class="cls-1" d="M70.12,143.24l-47.6-.12C10.05,143.09-.03,132.95,0,120.48L.26,22.52C.29,10.05,10.42-.03,22.9,0l47.6.13c12.47.03,22.56,10.17,22.53,22.64l-.26,97.96c-.04,12.47-10.17,22.55-22.64,22.52h0ZM70.12,143.24"/>
        <path class="cls-1" d="M402.69,141.7l-46.57-.12c-12.2-.03-22.07-9.95-22.04-22.15l.25-95.85c.03-12.2,9.95-22.07,22.16-22.03l46.57.12c12.2.03,22.07,9.95,22.03,22.15l-.25,95.85c-.03,12.2-9.95,22.07-22.15,22.04h0ZM402.69,141.7"/>
      </g>
    </g>
    <g>
      <path class="cls-4" d="M93.43,76.67l1.17-2.6c1.26.92,3.13,1.55,4.92,1.55,2.04,0,2.87-.68,2.87-1.6,0-2.79-8.66-.87-8.66-6.41,0-2.53,2.04-4.64,6.28-4.64,1.87,0,3.79.45,5.17,1.32l-1.06,2.62c-1.38-.79-2.81-1.17-4.13-1.17-2.04,0-2.83.77-2.83,1.7,0,2.75,8.66.85,8.66,6.32,0,2.49-2.06,4.62-6.32,4.62-2.36,0-4.75-.7-6.07-1.72Z"/>
      <path class="cls-4" d="M119.72,75.37v2.77h-11.54v-14.9h11.26v2.77h-7.83v3.24h6.92v2.68h-6.92v3.45h8.11Z"/>
      <path class="cls-4" d="M122.47,63.24h3.45v12.09h7.47v2.81h-10.92v-14.9Z"/>
      <path class="cls-4" d="M146.86,75.37v2.77h-11.54v-14.9h11.26v2.77h-7.83v3.24h6.92v2.68h-6.92v3.45h8.11Z"/>
      <path class="cls-4" d="M148.63,70.69c0-4.49,3.45-7.71,8.09-7.71,2.58,0,4.73.94,6.13,2.64l-2.21,2.04c-1-1.15-2.26-1.75-3.75-1.75-2.79,0-4.77,1.96-4.77,4.77s1.98,4.77,4.77,4.77c1.49,0,2.75-.6,3.75-1.77l2.21,2.04c-1.4,1.72-3.55,2.66-6.15,2.66-4.62,0-8.07-3.21-8.07-7.71Z"/>
      <path class="cls-4" d="M163.91,70.69c0-4.49,3.45-7.71,8.09-7.71,2.58,0,4.73.94,6.13,2.64l-2.21,2.04c-1-1.15-2.26-1.75-3.75-1.75-2.79,0-4.77,1.96-4.77,4.77s1.98,4.77,4.77,4.77c1.49,0,2.75-.6,3.75-1.77l2.21,2.04c-1.4,1.72-3.55,2.66-6.15,2.66-4.62,0-8.07-3.21-8.07-7.71Z"/>
      <path class="cls-4" d="M180.45,63.24h3.45v14.9h-3.45v-14.9Z"/>
      <path class="cls-4" d="M186.49,70.69c0-4.43,3.45-7.71,8.15-7.71s8.15,3.26,8.15,7.71-3.47,7.71-8.15,7.71-8.15-3.28-8.15-7.71ZM199.31,70.69c0-2.83-2-4.77-4.66-4.77s-4.66,1.94-4.66,4.77,2,4.77,4.66,4.77,4.66-1.94,4.66-4.77Z"/>
      <path class="cls-4" d="M219.06,63.24v14.9h-2.83l-7.43-9.05v9.05h-3.41v-14.9h2.85l7.41,9.05v-9.05h3.41Z"/>
      <path class="cls-4" d="M232.41,74.94h-6.92l-1.32,3.19h-3.53l6.64-14.9h3.41l6.66,14.9h-3.62l-1.32-3.19ZM231.32,72.33l-2.36-5.7-2.36,5.7h4.73Z"/>
      <path class="cls-4" d="M248.01,66.05h-4.77v-2.81h12.98v2.81h-4.77v12.09h-3.45v-12.09Z"/>
      <path class="cls-4" d="M257.7,71.58v-8.34h3.45v8.22c0,2.83,1.24,4,3.32,4s3.32-1.17,3.32-4v-8.22h3.41v8.34c0,4.38-2.51,6.81-6.75,6.81s-6.75-2.43-6.75-6.81Z"/>
      <path class="cls-4" d="M279.68,70.69c0-4.49,3.45-7.71,8.09-7.71,2.58,0,4.73.94,6.13,2.64l-2.21,2.04c-1-1.15-2.26-1.75-3.75-1.75-2.79,0-4.77,1.96-4.77,4.77s1.98,4.77,4.77,4.77c1.49,0,2.75-.6,3.75-1.77l2.21,2.04c-1.4,1.72-3.55,2.66-6.15,2.66-4.62,0-8.07-3.21-8.07-7.71Z"/>
      <path class="cls-4" d="M296.22,63.24h3.45v12.09h7.47v2.81h-10.92v-14.9Z"/>
      <path class="cls-4" d="M319.02,74.94h-6.92l-1.32,3.19h-3.53l6.64-14.9h3.41l6.66,14.9h-3.62l-1.32-3.19ZM317.94,72.33l-2.36-5.7-2.36,5.7h4.73Z"/>
      <path class="cls-4" d="M324.34,76.67l1.17-2.6c1.26.92,3.13,1.55,4.92,1.55,2.04,0,2.87-.68,2.87-1.6,0-2.79-8.66-.87-8.66-6.41,0-2.53,2.04-4.64,6.28-4.64,1.87,0,3.79.45,5.17,1.32l-1.06,2.62c-1.38-.79-2.81-1.17-4.13-1.17-2.04,0-2.83.77-2.83,1.7,0,2.75,8.66.85,8.66,6.32,0,2.49-2.06,4.62-6.32,4.62-2.36,0-4.75-.7-6.07-1.72Z"/>
      <path class="cls-4" d="M350.63,75.37v2.77h-11.54v-14.9h11.26v2.77h-7.83v3.24h6.92v2.68h-6.92v3.45h8.11Z"/>
    </g>
    <g>
      <path class="cls-4" d="M100.95,94.18h-4.81l-1.04,2.31h-.95l3.95-8.63h.9l3.95,8.63h-.96l-1.04-2.31ZM100.62,93.45l-2.07-4.64-2.07,4.64h4.14Z"/>
      <path class="cls-4" d="M110.13,90v5.7c0,2.23-1.1,3.24-3.24,3.24-1.18,0-2.34-.36-3.02-1l.44-.67c.62.55,1.55.89,2.55.89,1.64,0,2.39-.75,2.39-2.35v-.83c-.54.83-1.47,1.26-2.53,1.26-1.85,0-3.25-1.29-3.25-3.16s1.41-3.13,3.25-3.13c1.08,0,2.02.44,2.56,1.29v-1.25h.84ZM109.28,93.09c0-1.41-1.04-2.37-2.47-2.37s-2.45.96-2.45,2.37,1.02,2.38,2.45,2.38,2.47-.97,2.47-2.38Z"/>
      <path class="cls-4" d="M118.23,93.52h-5.42c.1,1.36,1.13,2.26,2.55,2.26.79,0,1.49-.28,1.98-.85l.49.57c-.58.69-1.48,1.06-2.5,1.06-2.02,0-3.4-1.38-3.4-3.3s1.34-3.29,3.17-3.29,3.14,1.34,3.14,3.29c0,.07-.01.17-.01.27ZM112.8,92.87h4.6c-.11-1.27-1.04-2.16-2.31-2.16s-2.18.89-2.29,2.16Z"/>
      <path class="cls-4" d="M125.99,92.73v3.76h-.88v-3.67c0-1.37-.71-2.07-1.95-2.07-1.39,0-2.27.86-2.27,2.34v3.4h-.88v-6.49h.84v1.2c.47-.79,1.34-1.25,2.47-1.25,1.58,0,2.66.91,2.66,2.77Z"/>
      <path class="cls-4" d="M134.31,87.34v9.15h-.84v-1.28c-.53.88-1.43,1.34-2.5,1.34-1.85,0-3.23-1.34-3.23-3.3s1.38-3.29,3.23-3.29c1.04,0,1.92.44,2.46,1.28v-3.9h.88ZM133.44,93.25c0-1.52-1.04-2.53-2.4-2.53s-2.42,1.01-2.42,2.53,1.04,2.53,2.42,2.53,2.4-1.01,2.4-2.53Z"/>
      <path class="cls-4" d="M141.64,92.47v4.02h-.84v-1.01c-.39.67-1.16,1.07-2.23,1.07-1.47,0-2.37-.76-2.37-1.89,0-1,.64-1.84,2.5-1.84h2.06v-.39c0-1.11-.63-1.71-1.84-1.71-.84,0-1.63.29-2.16.76l-.39-.65c.65-.55,1.62-.88,2.64-.88,1.68,0,2.63.84,2.63,2.51ZM140.76,94.54v-1.06h-2.03c-1.26,0-1.67.49-1.67,1.16,0,.75.6,1.22,1.64,1.22s1.71-.47,2.06-1.32Z"/>
      <path class="cls-4" d="M152.69,90l-3.24,7.26c-.54,1.27-1.23,1.68-2.16,1.68-.6,0-1.18-.2-1.58-.59l.41-.65c.32.32.71.49,1.18.49.58,0,.97-.27,1.34-1.08l.28-.63-2.9-6.47h.91l2.44,5.51,2.44-5.51h.86Z"/>
      <path class="cls-4" d="M163.72,93.25c0,1.97-1.38,3.3-3.23,3.3-1.04,0-1.92-.44-2.47-1.28v3.61h-.88v-8.88h.84v1.28c.53-.86,1.43-1.33,2.5-1.33,1.85,0,3.23,1.33,3.23,3.29ZM162.85,93.25c0-1.5-1.05-2.53-2.42-2.53s-2.42,1.02-2.42,2.53,1.04,2.53,2.42,2.53,2.42-1.01,2.42-2.53Z"/>
      <path class="cls-4" d="M170.37,92.47v4.02h-.84v-1.01c-.39.67-1.16,1.07-2.23,1.07-1.47,0-2.37-.76-2.37-1.89,0-1,.64-1.84,2.5-1.84h2.06v-.39c0-1.11-.63-1.71-1.84-1.71-.84,0-1.63.29-2.16.76l-.39-.65c.65-.55,1.62-.88,2.64-.88,1.68,0,2.63.84,2.63,2.51ZM169.49,94.54v-1.06h-2.03c-1.26,0-1.67.49-1.67,1.16,0,.75.6,1.22,1.64,1.22s1.71-.47,2.06-1.32Z"/>
      <path class="cls-4" d="M178.77,90v5.7c0,2.23-1.1,3.24-3.24,3.24-1.18,0-2.34-.36-3.02-1l.44-.67c.62.55,1.55.89,2.55.89,1.64,0,2.39-.75,2.39-2.35v-.83c-.54.83-1.47,1.26-2.53,1.26-1.85,0-3.25-1.29-3.25-3.16s1.41-3.13,3.25-3.13c1.08,0,2.02.44,2.56,1.29v-1.25h.84ZM177.92,93.09c0-1.41-1.04-2.37-2.47-2.37s-2.45.96-2.45,2.37,1.02,2.38,2.45,2.38,2.47-.97,2.47-2.38Z"/>
      <path class="cls-4" d="M186.12,92.47v4.02h-.84v-1.01c-.39.67-1.16,1.07-2.23,1.07-1.47,0-2.37-.76-2.37-1.89,0-1,.64-1.84,2.5-1.84h2.06v-.39c0-1.11-.63-1.71-1.84-1.71-.84,0-1.63.29-2.16.76l-.39-.65c.65-.55,1.62-.88,2.64-.88,1.68,0,2.63.84,2.63,2.51ZM185.24,94.54v-1.06h-2.04c-1.26,0-1.66.49-1.66,1.16,0,.75.6,1.22,1.64,1.22s1.71-.47,2.06-1.32Z"/>
      <path class="cls-4" d="M191.07,93.25c0-1.94,1.41-3.29,3.34-3.29,1.1,0,2.02.43,2.54,1.28l-.65.44c-.44-.65-1.13-.96-1.89-.96-1.42,0-2.45,1.01-2.45,2.53s1.04,2.53,2.45,2.53c.75,0,1.44-.3,1.89-.95l.65.44c-.52.84-1.44,1.28-2.54,1.28-1.94,0-3.34-1.37-3.34-3.3Z"/>
      <path class="cls-4" d="M198.56,87.34h.88v9.15h-.88v-9.15Z"/>
      <path class="cls-4" d="M206.77,92.47v4.02h-.84v-1.01c-.39.67-1.16,1.07-2.23,1.07-1.47,0-2.37-.76-2.37-1.89,0-1,.64-1.84,2.5-1.84h2.06v-.39c0-1.11-.63-1.71-1.84-1.71-.84,0-1.63.29-2.16.76l-.39-.65c.65-.55,1.62-.88,2.64-.88,1.68,0,2.63.84,2.63,2.51ZM205.89,94.54v-1.06h-2.04c-1.26,0-1.66.49-1.66,1.16,0,.75.6,1.22,1.64,1.22s1.71-.47,2.06-1.32Z"/>
      <path class="cls-4" d="M208.25,95.75l.39-.69c.52.41,1.39.73,2.31.73,1.23,0,1.74-.42,1.74-1.06,0-1.69-4.2-.36-4.2-2.92,0-1.06.91-1.85,2.56-1.85.84,0,1.75.23,2.29.6l-.38.7c-.57-.39-1.25-.55-1.91-.55-1.17,0-1.69.46-1.69,1.07,0,1.75,4.2.43,4.2,2.92,0,1.12-.99,1.85-2.68,1.85-1.07,0-2.11-.34-2.64-.8Z"/>
      <path class="cls-4" d="M220.82,93.52h-5.42c.1,1.36,1.13,2.26,2.55,2.26.79,0,1.49-.28,1.99-.85l.49.57c-.58.69-1.48,1.06-2.5,1.06-2.02,0-3.4-1.38-3.4-3.3s1.34-3.29,3.17-3.29,3.14,1.34,3.14,3.29c0,.07-.01.17-.01.27ZM215.39,92.87h4.6c-.11-1.27-1.04-2.16-2.31-2.16s-2.18.89-2.29,2.16Z"/>
      <path class="cls-4" d="M221.71,95.75l.39-.69c.52.41,1.39.73,2.31.73,1.23,0,1.74-.42,1.74-1.06,0-1.69-4.2-.36-4.2-2.92,0-1.06.91-1.85,2.56-1.85.84,0,1.75.23,2.29.6l-.38.7c-.57-.39-1.25-.55-1.91-.55-1.17,0-1.69.46-1.69,1.07,0,1.75,4.21.43,4.21,2.92,0,1.12-.99,1.85-2.68,1.85-1.07,0-2.11-.34-2.64-.8Z"/>
    </g>
    <path class="cls-4" d="M66.26,100.42c-.11.03-.22.06-.33.1-1.87.74-3.89.18-5.12-1.42-.06-.08-.13-.16-.23-.28-.85.61-1.69,1.21-2.54,1.8-1.03.72-2.17.96-3.4.7-1.98-.41-3.4-2.12-3.46-4.14,0-.15,0-.3,0-.49-1.07-.33-1.95-.92-2.57-1.88-1.19-1.81-.81-4.37.91-5.7.74-.58,1.52-1.1,2.28-1.64.15-.11.3-.21.47-.34-2.8-3.94-5.57-7.83-8.37-11.78-.49.34-.96.69-1.45,1.03-.59.4-1.15.88-1.79,1.17-2.9,1.31-6.09-.75-6.14-3.94,0-.12,0-.24,0-.38-1.04-.32-1.9-.88-2.52-1.8-1.28-1.89-.86-4.52.97-5.89.86-.64,1.74-1.24,2.6-1.86-1.36-2.79-.98-5.04,1.04-6.36,1.8-1.17,4.41-1.02,6.1,1.27.44-.31.87-.63,1.31-.93.59-.4,1.15-.88,1.78-1.19,2.99-1.45,6.29.64,6.29,3.95,0,.08,0,.17,0,.13.7.46,1.4.79,1.94,1.3,1.92,1.79,1.74,4.9-.35,6.5-.86.66-1.77,1.26-2.67,1.91,2.8,3.94,5.57,7.84,8.38,11.79.5-.35.99-.71,1.49-1.06.58-.39,1.12-.85,1.75-1.14,2.9-1.31,6.08.76,6.13,3.95,0,.12,0,.23,0,.37,1.41.43,2.43,1.28,2.97,2.66.71,1.82.11,3.9-1.47,5.06-.83.62-1.69,1.2-2.57,1.83.14.25.29.47.41.71.86,1.72.62,3.53-.64,4.98-.05.06-.09.14-.13.21l-1.08.77ZM45.64,70.36c2.01-1.43,4.03-2.85,6.03-4.29.66-.48.81-1.22.4-1.82-.42-.62-1.2-.73-1.89-.26-.07.05-.14.1-.21.15-3.86,2.74-7.71,5.48-11.56,8.23-.21.15-.41.31-.57.51-.46.59-.3,1.43.33,1.82.55.34,1.06.24,1.56-.12,1.97-1.4,3.94-2.8,5.91-4.2ZM57.61,87.11h0c-1.41,1-2.83,2.01-4.24,3.02-.64.45-1.28.9-1.9,1.37-.51.39-.62,1.07-.31,1.6.33.57.96.8,1.58.56.22-.09.42-.23.61-.36,3.26-2.31,6.52-4.63,9.78-6.95.58-.41,1.16-.83,1.75-1.24.1-.07.2-.13.29-.21.59-.48.72-1.24.3-1.81-.42-.57-1.18-.7-1.81-.25-2.02,1.42-4.02,2.86-6.03,4.29ZM60.83,91.73c-1.98,1.41-3.97,2.82-5.95,4.23-.74.53-.84,1.42-.25,2.02.47.47,1.15.49,1.81.02,3.25-2.31,6.49-4.61,9.74-6.92.75-.53,1.51-1.05,2.24-1.6.65-.49.73-1.37.21-1.93-.46-.49-1.15-.54-1.76-.11-2.01,1.42-4.02,2.86-6.03,4.29ZM42.41,65.74c1.98-1.41,3.97-2.82,5.95-4.23.71-.51.88-1.28.43-1.9-.44-.6-1.21-.69-1.9-.2-.77.54-1.53,1.08-2.29,1.63-3.19,2.27-6.38,4.54-9.57,6.8-.4.28-.69.61-.7,1.12-.02.52.2.93.66,1.18.5.27.98.19,1.44-.13,1.99-1.42,3.99-2.84,5.99-4.26ZM56.83,83.87c-2.8-3.94-5.56-7.83-8.33-11.72l-2.03,1.44c2.79,3.92,5.56,7.81,8.33,11.72l2.03-1.44ZM65.19,95.59c-.69.49-1.37.98-2.05,1.46.48.73,1.22.93,1.85.52.64-.42.74-1.2.21-1.98ZM40.17,60.4c-.29-.48-.69-.73-1.23-.7-.52.03-.9.3-1.1.78-.2.5-.12.96.27,1.37l2.05-1.46Z"/>
  </g>
  <g class="cls-5">
    <path class="cls-3" d="M1809.75,133.32c0,424.63-344.23,768.86-768.86,768.86S272.03,557.95,272.03,133.32s344.23-768.86,768.86-768.86,768.86,344.23,768.86,768.86"/>
  </g>
</svg>