<?xml version="1.0" encoding="UTF-8"?>
<svg id="Capa_1" data-name="Capa 1" xmlns="http://www.w3.org/2000/svg" xmlns:xlink="http://www.w3.org/1999/xlink" viewBox="0 0 451.95 183.73">
  <defs>
    <style>
      .cls-1 {
        fill: #000;
      }

      .cls-1, .cls-2, .cls-3, .cls-4 {
        stroke-width: 0px;
      }

      .cls-2 {
        fill: none;
      }

      .cls-5 {
        clip-path: url(#clippath);
      }

      .cls-3 {
        fill: #10295b;
      }

      .cls-4 {
        fill: #f4d100;
      }
    </style>
    <clipPath id="clippath">
      <rect class="cls-2" x="-195.08" y="711.01" width="1366" height="768"/>
    </clipPath>
  </defs>
  <g>
    <rect class="cls-4" x="0" width="451.95" height="183.73" rx="25.93" ry="25.93"/>
    <g>
      <path class="cls-1" d="M39.22,121.4v2.77h-11.54v-14.9h11.26v2.77h-7.83v3.24h6.92v2.68h-6.92v3.45h8.11Z"/>
      <path class="cls-1" d="M55.63,109.26v14.9h-2.83l-7.43-9.05v9.05h-3.41v-14.9h2.85l7.41,9.05v-9.05h3.41Z"/>
      <path class="cls-1" d="M62.25,112.07h-4.77v-2.81h12.98v2.81h-4.77v12.09h-3.45v-12.09Z"/>
      <path class="cls-1" d="M81.82,124.16l-2.87-4.15h-3.17v4.15h-3.45v-14.9h6.45c3.98,0,6.47,2.06,6.47,5.41,0,2.23-1.13,3.87-3.07,4.7l3.34,4.79h-3.7ZM78.58,112.07h-2.81v5.19h2.81c2.11,0,3.17-.98,3.17-2.6s-1.06-2.6-3.17-2.6Z"/>
      <path class="cls-1" d="M99.5,121.4v2.77h-11.54v-14.9h11.26v2.77h-7.83v3.24h6.92v2.68h-6.92v3.45h8.11Z"/>
      <path class="cls-1" d="M115.92,109.26v14.9h-2.83l-7.43-9.05v9.05h-3.41v-14.9h2.85l7.41,9.05v-9.05h3.41Z"/>
      <path class="cls-1" d="M129.26,120.97h-6.92l-1.32,3.19h-3.53l6.64-14.9h3.41l6.66,14.9h-3.62l-1.32-3.19ZM128.18,118.35l-2.36-5.7-2.36,5.7h4.73Z"/>
      <path class="cls-1" d="M149.31,124.16l-.02-8.94-4.38,7.37h-1.55l-4.36-7.17v8.75h-3.24v-14.9h2.85l5.58,9.26,5.49-9.26h2.83l.04,14.9h-3.24Z"/>
      <path class="cls-1" d="M156.08,109.26h3.45v14.9h-3.45v-14.9Z"/>
      <path class="cls-1" d="M174.6,121.4v2.77h-11.54v-14.9h11.26v2.77h-7.83v3.24h6.92v2.68h-6.92v3.45h8.11Z"/>
      <path class="cls-1" d="M191.01,109.26v14.9h-2.83l-7.43-9.05v9.05h-3.41v-14.9h2.85l7.41,9.05v-9.05h3.41Z"/>
      <path class="cls-1" d="M197.63,112.07h-4.77v-2.81h12.98v2.81h-4.77v12.09h-3.45v-12.09Z"/>
      <path class="cls-1" d="M206.55,116.71c0-4.43,3.45-7.71,8.15-7.71s8.15,3.26,8.15,7.71-3.47,7.71-8.15,7.71-8.15-3.28-8.15-7.71ZM219.37,116.71c0-2.83-2-4.77-4.66-4.77s-4.66,1.94-4.66,4.77,2,4.77,4.66,4.77,4.66-1.94,4.66-4.77Z"/>
      <path class="cls-1" d="M244.4,114.67c0,3.32-2.49,5.38-6.47,5.38h-3v4.11h-3.45v-14.9h6.45c3.98,0,6.47,2.06,6.47,5.41ZM240.91,114.67c0-1.64-1.06-2.6-3.17-2.6h-2.81v5.17h2.81c2.11,0,3.17-.96,3.17-2.58Z"/>
      <path class="cls-1" d="M258.38,121.4v2.77h-11.54v-14.9h11.26v2.77h-7.83v3.24h6.92v2.68h-6.92v3.45h8.11Z"/>
      <path class="cls-1" d="M270.62,124.16l-2.87-4.15h-3.17v4.15h-3.45v-14.9h6.45c3.98,0,6.47,2.06,6.47,5.41,0,2.23-1.13,3.87-3.07,4.7l3.34,4.79h-3.7ZM267.39,112.07h-2.81v5.19h2.81c2.11,0,3.17-.98,3.17-2.6s-1.06-2.6-3.17-2.6Z"/>
      <path class="cls-1" d="M275.6,122.7l1.17-2.6c1.26.92,3.13,1.55,4.92,1.55,2.04,0,2.87-.68,2.87-1.6,0-2.79-8.66-.87-8.66-6.41,0-2.53,2.04-4.64,6.28-4.64,1.87,0,3.79.45,5.17,1.32l-1.06,2.62c-1.38-.79-2.81-1.17-4.13-1.17-2.04,0-2.83.77-2.83,1.7,0,2.75,8.66.85,8.66,6.32,0,2.49-2.06,4.62-6.32,4.62-2.36,0-4.75-.7-6.07-1.72Z"/>
      <path class="cls-1" d="M289.42,116.71c0-4.43,3.45-7.71,8.15-7.71s8.15,3.26,8.15,7.71-3.47,7.71-8.15,7.71-8.15-3.28-8.15-7.71ZM302.23,116.71c0-2.83-2-4.77-4.66-4.77s-4.66,1.94-4.66,4.77,2,4.77,4.66,4.77,4.66-1.94,4.66-4.77Z"/>
      <path class="cls-1" d="M321.99,109.26v14.9h-2.83l-7.43-9.05v9.05h-3.41v-14.9h2.85l7.41,9.05v-9.05h3.41Z"/>
      <path class="cls-1" d="M335.33,120.97h-6.92l-1.32,3.19h-3.53l6.64-14.9h3.41l6.66,14.9h-3.62l-1.32-3.19ZM334.25,118.35l-2.36-5.7-2.36,5.7h4.73Z"/>
      <path class="cls-1" d="M341.82,109.26h3.45v12.09h7.47v2.81h-10.92v-14.9Z"/>
      <path class="cls-1" d="M354.68,109.26h3.45v14.9h-3.45v-14.9Z"/>
      <path class="cls-1" d="M373.73,121.35v2.81h-13.03v-2.24l8.17-9.86h-8v-2.81h12.54v2.24l-8.15,9.86h8.47Z"/>
      <path class="cls-1" d="M385.76,120.97h-6.92l-1.32,3.19h-3.53l6.64-14.9h3.41l6.66,14.9h-3.62l-1.32-3.19ZM384.67,118.35l-2.36-5.7-2.36,5.7h4.73Z"/>
      <path class="cls-1" d="M392.25,109.26h6.77c4.87,0,8.22,2.94,8.22,7.45s-3.34,7.45-8.22,7.45h-6.77v-14.9ZM398.85,121.33c2.96,0,4.9-1.77,4.9-4.62s-1.94-4.62-4.9-4.62h-3.15v9.24h3.15Z"/>
      <path class="cls-1" d="M408.9,116.71c0-4.43,3.45-7.71,8.15-7.71s8.15,3.26,8.15,7.71-3.47,7.71-8.15,7.71-8.15-3.28-8.15-7.71ZM421.71,116.71c0-2.83-2-4.77-4.66-4.77s-4.66,1.94-4.66,4.77,2,4.77,4.66,4.77,4.66-1.94,4.66-4.77Z"/>
    </g>
    <g>
      <path class="cls-1" d="M130.05,142.07l.36-.7c.62.6,1.71,1.05,2.85,1.05,1.62,0,2.32-.68,2.32-1.53,0-2.37-5.31-.91-5.31-4.11,0-1.27.99-2.37,3.18-2.37.97,0,1.99.28,2.68.76l-.31.73c-.74-.48-1.6-.71-2.37-.71-1.58,0-2.28.7-2.28,1.57,0,2.37,5.31.94,5.31,4.08,0,1.27-1.01,2.36-3.22,2.36-1.29,0-2.56-.46-3.21-1.12Z"/>
      <path class="cls-1" d="M143.92,140.14h-5.42c.1,1.36,1.13,2.26,2.55,2.26.79,0,1.49-.28,1.98-.85l.49.57c-.58.69-1.48,1.06-2.5,1.06-2.02,0-3.4-1.38-3.4-3.3s1.34-3.29,3.17-3.29,3.14,1.34,3.14,3.29c0,.07-.01.17-.01.27ZM138.5,139.49h4.6c-.11-1.27-1.04-2.16-2.31-2.16s-2.18.89-2.29,2.16Z"/>
      <path class="cls-1" d="M148.98,136.58v.85c-.07,0-.15-.01-.21-.01-1.36,0-2.18.86-2.18,2.39v3.3h-.88v-6.49h.84v1.27c.41-.86,1.23-1.32,2.43-1.32Z"/>
      <path class="cls-1" d="M156.29,136.63l-2.88,6.49h-.9l-2.87-6.49h.91l2.43,5.52,2.45-5.52h.86Z"/>
      <path class="cls-1" d="M157.33,134.58c0-.33.28-.62.64-.62s.64.27.64.6c0,.36-.27.64-.64.64s-.64-.28-.64-.63ZM157.52,136.63h.88v6.49h-.88v-6.49Z"/>
      <path class="cls-1" d="M160.18,139.87c0-1.94,1.41-3.29,3.34-3.29,1.1,0,2.02.43,2.54,1.28l-.65.44c-.44-.65-1.13-.96-1.89-.96-1.42,0-2.45,1.01-2.45,2.53s1.04,2.53,2.45,2.53c.75,0,1.44-.3,1.89-.95l.65.44c-.52.84-1.44,1.28-2.54,1.28-1.94,0-3.34-1.37-3.34-3.3Z"/>
      <path class="cls-1" d="M167.58,134.58c0-.33.28-.62.64-.62s.64.27.64.6c0,.36-.27.64-.64.64s-.64-.28-.64-.63ZM167.78,136.63h.88v6.49h-.88v-6.49Z"/>
      <path class="cls-1" d="M170.44,139.87c0-1.92,1.41-3.29,3.3-3.29s3.29,1.37,3.29,3.29-1.39,3.3-3.29,3.3-3.3-1.38-3.3-3.3ZM176.15,139.87c0-1.52-1.02-2.53-2.4-2.53s-2.42,1.01-2.42,2.53,1.04,2.53,2.42,2.53,2.4-1.01,2.4-2.53Z"/>
      <path class="cls-1" d="M177.92,142.38l.39-.69c.52.41,1.39.73,2.31.73,1.23,0,1.74-.42,1.74-1.06,0-1.69-4.2-.36-4.2-2.92,0-1.06.91-1.85,2.56-1.85.84,0,1.75.23,2.29.6l-.38.7c-.57-.39-1.25-.55-1.91-.55-1.17,0-1.69.46-1.69,1.07,0,1.75,4.21.43,4.21,2.92,0,1.12-.99,1.85-2.68,1.85-1.07,0-2.11-.34-2.64-.8Z"/>
      <path class="cls-1" d="M194.64,139.87c0,1.97-1.38,3.3-3.23,3.3-1.04,0-1.92-.44-2.47-1.28v3.61h-.88v-8.88h.84v1.28c.53-.86,1.43-1.33,2.5-1.33,1.85,0,3.23,1.33,3.23,3.29ZM193.77,139.87c0-1.5-1.05-2.53-2.42-2.53s-2.42,1.02-2.42,2.53,1.04,2.53,2.42,2.53,2.42-1.01,2.42-2.53Z"/>
      <path class="cls-1" d="M199.7,136.58v.85c-.07,0-.15-.01-.21-.01-1.36,0-2.18.86-2.18,2.39v3.3h-.88v-6.49h.84v1.27c.41-.86,1.23-1.32,2.43-1.32Z"/>
      <path class="cls-1" d="M206.86,140.14h-5.42c.1,1.36,1.13,2.26,2.55,2.26.79,0,1.49-.28,1.98-.85l.49.57c-.58.69-1.48,1.06-2.5,1.06-2.02,0-3.4-1.38-3.4-3.3s1.34-3.29,3.17-3.29,3.14,1.34,3.14,3.29c0,.07-.01.17-.01.27ZM201.43,139.49h4.6c-.11-1.27-1.04-2.16-2.31-2.16s-2.18.89-2.29,2.16Z"/>
      <path class="cls-1" d="M219.35,139.35v3.76h-.88v-3.67c0-1.37-.69-2.07-1.86-2.07-1.33,0-2.17.86-2.17,2.34v3.4h-.88v-3.67c0-1.37-.69-2.07-1.87-2.07-1.32,0-2.17.86-2.17,2.34v3.4h-.88v-6.49h.84v1.18c.46-.78,1.29-1.23,2.38-1.23s1.91.46,2.31,1.37c.47-.84,1.39-1.37,2.56-1.37,1.58,0,2.61.91,2.61,2.77Z"/>
      <path class="cls-1" d="M221.53,134.58c0-.33.28-.62.64-.62s.64.27.64.6c0,.36-.27.64-.64.64s-.64-.28-.64-.63ZM221.73,136.63h.88v6.49h-.88v-6.49Z"/>
      <path class="cls-1" d="M230.89,136.63v6.49h-.84v-1.18c-.46.79-1.29,1.25-2.33,1.25-1.65,0-2.74-.92-2.74-2.79v-3.76h.88v3.67c0,1.38.71,2.08,1.95,2.08,1.36,0,2.21-.88,2.21-2.35v-3.4h.88Z"/>
      <path class="cls-1" d="M244.04,139.35v3.76h-.88v-3.67c0-1.37-.69-2.07-1.86-2.07-1.33,0-2.17.86-2.17,2.34v3.4h-.88v-3.67c0-1.37-.69-2.07-1.87-2.07-1.32,0-2.17.86-2.17,2.34v3.4h-.88v-6.49h.84v1.18c.46-.78,1.29-1.23,2.38-1.23s1.91.46,2.31,1.37c.47-.84,1.39-1.37,2.56-1.37,1.58,0,2.61.91,2.61,2.77Z"/>
      <path class="cls-1" d="M249.44,134.58c0-.33.28-.62.64-.62s.64.27.64.6c0,.36-.27.64-.64.64s-.64-.28-.64-.63ZM249.64,136.63h.88v6.49h-.88v-6.49Z"/>
      <path class="cls-1" d="M258.92,139.35v3.76h-.88v-3.67c0-1.37-.71-2.07-1.95-2.07-1.39,0-2.27.86-2.27,2.34v3.4h-.88v-6.49h.84v1.2c.47-.79,1.34-1.25,2.47-1.25,1.58,0,2.66.91,2.66,2.77Z"/>
      <path class="cls-1" d="M267.24,133.97v9.15h-.84v-1.28c-.53.88-1.43,1.34-2.5,1.34-1.85,0-3.23-1.34-3.23-3.3s1.38-3.29,3.23-3.29c1.04,0,1.92.44,2.47,1.28v-3.9h.88ZM266.38,139.87c0-1.52-1.04-2.53-2.4-2.53s-2.42,1.01-2.42,2.53,1.04,2.53,2.42,2.53,2.4-1.01,2.4-2.53Z"/>
      <path class="cls-1" d="M269.48,134.58c0-.33.28-.62.64-.62s.64.27.64.6c0,.36-.27.64-.64.64s-.64-.28-.64-.63ZM269.68,136.63h.88v6.49h-.88v-6.49Z"/>
      <path class="cls-1" d="M278.44,136.63l-2.88,6.49h-.9l-2.87-6.49h.91l2.43,5.52,2.45-5.52h.86Z"/>
      <path class="cls-1" d="M279.48,134.58c0-.33.28-.62.64-.62s.64.27.64.6c0,.36-.27.64-.64.64s-.64-.28-.64-.63ZM279.67,136.63h.88v6.49h-.88v-6.49Z"/>
      <path class="cls-1" d="M288.91,133.97v9.15h-.84v-1.28c-.53.88-1.43,1.34-2.5,1.34-1.85,0-3.23-1.34-3.23-3.3s1.38-3.29,3.23-3.29c1.04,0,1.92.44,2.47,1.28v-3.9h.88ZM288.04,139.87c0-1.52-1.04-2.53-2.4-2.53s-2.42,1.01-2.42,2.53,1.04,2.53,2.42,2.53,2.4-1.01,2.4-2.53Z"/>
      <path class="cls-1" d="M297.19,136.63v6.49h-.84v-1.18c-.46.79-1.29,1.25-2.33,1.25-1.65,0-2.74-.92-2.74-2.79v-3.76h.88v3.67c0,1.38.71,2.08,1.95,2.08,1.36,0,2.21-.88,2.21-2.35v-3.4h.88Z"/>
      <path class="cls-1" d="M304.53,139.1v4.02h-.84v-1.01c-.39.67-1.16,1.07-2.23,1.07-1.47,0-2.37-.76-2.37-1.89,0-1,.64-1.84,2.5-1.84h2.06v-.39c0-1.11-.63-1.71-1.84-1.71-.84,0-1.63.3-2.16.76l-.39-.65c.65-.55,1.62-.88,2.64-.88,1.68,0,2.63.84,2.63,2.51ZM303.66,141.17v-1.06h-2.03c-1.26,0-1.67.49-1.67,1.16,0,.75.6,1.22,1.64,1.22s1.71-.47,2.06-1.32Z"/>
      <path class="cls-1" d="M306.91,133.97h.88v9.15h-.88v-9.15Z"/>
      <path class="cls-1" d="M315.87,140.14h-5.42c.1,1.36,1.13,2.26,2.55,2.26.79,0,1.49-.28,1.98-.85l.49.57c-.58.69-1.48,1.06-2.5,1.06-2.02,0-3.4-1.38-3.4-3.3s1.34-3.29,3.17-3.29,3.14,1.34,3.14,3.29c0,.07-.01.17-.01.27ZM310.45,139.49h4.6c-.11-1.27-1.04-2.16-2.31-2.16s-2.18.89-2.29,2.16Z"/>
      <path class="cls-1" d="M316.77,142.38l.39-.69c.52.41,1.39.73,2.31.73,1.23,0,1.74-.42,1.74-1.06,0-1.69-4.2-.36-4.2-2.92,0-1.06.91-1.85,2.56-1.85.84,0,1.75.23,2.29.6l-.38.7c-.57-.39-1.25-.55-1.91-.55-1.17,0-1.69.46-1.69,1.07,0,1.75,4.2.43,4.2,2.92,0,1.12-.99,1.85-2.68,1.85-1.07,0-2.11-.34-2.64-.8Z"/>
    </g>
    <path class="cls-1" d="M248.92,54.93v26.17c-.19.75-.32,1.52-.59,2.23-1.34,3.59-4.67,5.81-8.68,5.81-8.6,0-17.21,0-25.81,0-.69,0-1.37.01-2.06-.01-4.82-.17-8.72-4.03-8.74-8.75-.03-8.29-.02-16.58,0-24.87,0-1.49.59-2.76,1.67-3.78,1.04-.99,2.29-1.49,3.73-1.48.73,0,1.45,0,2.21,0,0-1.05-.01-2.03,0-3.02.02-.96.73-1.7,1.68-1.78.86-.07,1.68.54,1.86,1.42.06.27.04.56.04.85,0,.83,0,1.66,0,2.5h3.12c0-.17.02-.31.02-.46,0-.82,0-1.64,0-2.46.01-1.05.79-1.85,1.79-1.86,1,0,1.78.79,1.79,1.84,0,.84,0,1.67,0,2.51,0,.14.01.28.02.42h10.01c0-1.02-.01-2,0-2.98.01-.99.79-1.77,1.76-1.78.96-.02,1.78.75,1.81,1.74.02.63,0,1.25,0,1.88,0,.38,0,.76,0,1.16h3.14c0-1,0-1.99,0-2.97.01-1.02.8-1.81,1.78-1.81.98,0,1.78.78,1.8,1.8.02.85,0,1.7,0,2.55,0,.14.01.28.02.45.8,0,1.54-.01,2.29,0,1.96.05,3.49.9,4.49,2.57.38.64.55,1.4.82,2.1ZM238.16,64.85h-24.34v13.51h24.34v-13.51ZM206.62,64.84c0,.2,0,.35,0,.5,0,4.9,0,9.8,0,14.69,0,3.14,2.32,5.52,5.48,5.52,9.26.02,18.52.02,27.77,0,3.15,0,5.46-2.38,5.46-5.53,0-4.9,0-9.8,0-14.69v-.49h-3.58v.55c0,4.24,0,8.48,0,12.72,0,2.35-1.51,3.87-3.86,3.87-7.94,0-15.89,0-23.83,0-2.35,0-3.85-1.52-3.85-3.88,0-4.24,0-8.48,0-12.72v-.54h-3.58ZM241.3,53.84c0,.92.01,1.8,0,2.68-.01.83-.55,1.52-1.31,1.72-1.14.31-2.24-.51-2.26-1.7-.02-.89,0-1.78,0-2.67h-3.11c-.02.06-.03.09-.03.12,0,.78,0,1.55,0,2.33,0,1.16-.74,1.99-1.79,1.99-1.04,0-1.8-.82-1.8-1.97,0-.82,0-1.63,0-2.47h-10.03c0,.91.01,1.79,0,2.67-.02.99-.8,1.76-1.77,1.78-.96.01-1.77-.76-1.81-1.74-.02-.61,0-1.22,0-1.84,0-.29,0-.58,0-.87h-3.14c0,.9,0,1.78,0,2.66-.01.83-.55,1.52-1.31,1.72-1.14.3-2.24-.51-2.27-1.7-.02-.89,0-1.78,0-2.71-.74,0-1.42,0-2.11,0-1.2,0-1.93.73-1.93,1.92,0,1.69,0,3.37,0,5.06,0,.13.01.26.02.37h38.69c0-1.93.02-3.83-.01-5.72-.02-.89-.78-1.6-1.66-1.63-.76-.02-1.52,0-2.36,0Z"/>
  </g>
  <g class="cls-5">
    <path class="cls-3" d="M1256.78,564.83c0,424.63-344.23,768.86-768.86,768.86S-280.95,989.46-280.95,564.83,63.29-204.04,487.92-204.04s768.86,344.23,768.86,768.86"/>
  </g>
</svg>