<?xml version="1.0" encoding="UTF-8"?>
<svg id="Capa_1" data-name="Capa 1" xmlns="http://www.w3.org/2000/svg" viewBox="0 0 256.61 337.4">
  <defs>
    <style>
      .cls-1 {
        fill: #000;
      }

      .cls-1, .cls-2 {
        stroke-width: 0px;
      }

      .cls-2 {
        fill: #fff;
      }
    </style>
  </defs>
  <path class="cls-1" d="M256.41,224.63c-1.51-27.39-11.79-52.53-28.01-72.74,2.91-8.26,15.12-44.08,20.4-77.98,2.16-13.86-1.73-27.06-11.24-38.17C214.98,9.36,164.59,0,128.31,0S41.63,9.36,19.04,35.74c-9.51,11.11-13.4,24.31-11.24,38.17,5.25,33.71,17.36,69.32,20.35,77.84C10.56,173.72,0,201.57,0,231.9c0,40.72,18.98,77.03,48.59,100.53,4.1,3.25,9.22,4.97,14.45,4.97h130.53c5.24,0,10.36-1.72,14.46-4.98,31.36-24.89,50.79-64.15,48.38-107.79ZM133.38,103.69c-28.88-1.11-55.71,7.35-77.65,22.44-4.54-14.46-10.87-36.7-14.11-57.48-.43-2.79-.37-6.23,3.42-10.65,11.8-13.78,46.82-23.78,83.27-23.78s71.48,10,83.27,23.78c3.79,4.42,3.85,7.87,3.42,10.65-3.25,20.84-9.6,43.14-14.15,57.6-19.39-13.38-42.58-21.59-67.47-22.55Z"/>
  <g>
    <path class="cls-2" d="M88.81,252.43v2.77h-11.54v-14.9h11.26v2.77h-7.83v3.24h6.92v2.68h-6.92v3.45h8.11Z"/>
    <path class="cls-2" d="M105.67,240.3l-6.45,14.9h-3.41l-6.43-14.9h3.72l4.53,10.64,4.6-10.64h3.43Z"/>
    <path class="cls-2" d="M118.44,252.43v2.77h-11.54v-14.9h11.26v2.77h-7.83v3.24h6.92v2.68h-6.92v3.45h8.11Z"/>
    <path class="cls-2" d="M134.85,240.3v14.9h-2.83l-7.43-9.05v9.05h-3.41v-14.9h2.85l7.41,9.05v-9.05h3.41Z"/>
    <path class="cls-2" d="M141.47,243.11h-4.77v-2.81h12.98v2.81h-4.77v12.09h-3.45v-12.09Z"/>
    <path class="cls-2" d="M150.39,247.75c0-4.43,3.45-7.71,8.15-7.71s8.15,3.26,8.15,7.71-3.47,7.71-8.15,7.71-8.15-3.28-8.15-7.71ZM163.2,247.75c0-2.83-2-4.77-4.66-4.77s-4.66,1.94-4.66,4.77,2,4.77,4.66,4.77,4.66-1.94,4.66-4.77Z"/>
    <path class="cls-2" d="M168.12,253.73l1.17-2.6c1.26.92,3.13,1.55,4.92,1.55,2.04,0,2.87-.68,2.87-1.6,0-2.79-8.66-.87-8.66-6.41,0-2.53,2.04-4.64,6.28-4.64,1.87,0,3.79.45,5.17,1.32l-1.06,2.62c-1.38-.79-2.81-1.17-4.13-1.17-2.04,0-2.83.77-2.83,1.7,0,2.75,8.66.85,8.66,6.32,0,2.49-2.06,4.62-6.32,4.62-2.36,0-4.75-.7-6.07-1.72Z"/>
  </g>
  <g>
    <path class="cls-2" d="M64.85,273.14v.79h-6.1v-8.63h5.92v.79h-5v3.07h4.46v.78h-4.46v3.21h5.19Z"/>
    <path class="cls-2" d="M66.81,264.78h.88v9.15h-.88v-9.15Z"/>
    <path class="cls-2" d="M69.92,265.4c0-.33.28-.62.64-.62s.64.27.64.6c0,.36-.27.64-.64.64s-.64-.28-.64-.63ZM70.12,267.45h.88v6.49h-.88v-6.49Z"/>
    <path class="cls-2" d="M79.44,267.45v5.7c0,2.23-1.1,3.24-3.24,3.24-1.18,0-2.34-.36-3.02-1l.44-.67c.62.55,1.55.89,2.55.89,1.64,0,2.39-.75,2.39-2.35v-.83c-.54.83-1.47,1.26-2.53,1.26-1.85,0-3.25-1.29-3.25-3.16s1.41-3.13,3.25-3.13c1.08,0,2.02.44,2.56,1.29v-1.25h.84ZM78.59,270.53c0-1.41-1.04-2.37-2.47-2.37s-2.45.96-2.45,2.37,1.02,2.38,2.45,2.38,2.47-.97,2.47-2.38Z"/>
    <path class="cls-2" d="M87.54,270.96h-5.42c.1,1.36,1.13,2.26,2.55,2.26.79,0,1.49-.28,1.99-.85l.49.57c-.58.69-1.48,1.06-2.5,1.06-2.02,0-3.4-1.38-3.4-3.3s1.34-3.29,3.17-3.29,3.14,1.34,3.14,3.29c0,.07-.01.17-.01.27ZM82.11,270.31h4.6c-.11-1.27-1.04-2.16-2.31-2.16s-2.18.89-2.29,2.16Z"/>
    <path class="cls-2" d="M95.98,273.54c-.34.31-.86.46-1.37.46-1.22,0-1.9-.69-1.9-1.89v-3.92h-1.16v-.74h1.16v-1.42h.88v1.42h1.97v.74h-1.97v3.87c0,.76.39,1.18,1.12,1.18.36,0,.71-.11.96-.33l.31.63Z"/>
    <path class="cls-2" d="M103.41,267.45v6.49h-.84v-1.18c-.46.79-1.29,1.25-2.33,1.25-1.65,0-2.74-.92-2.74-2.79v-3.76h.88v3.67c0,1.38.71,2.08,1.95,2.08,1.36,0,2.21-.88,2.21-2.35v-3.4h.88Z"/>
    <path class="cls-2" d="M114.73,270.96h-5.42c.1,1.36,1.13,2.26,2.55,2.26.79,0,1.49-.28,1.98-.85l.49.57c-.58.69-1.48,1.06-2.5,1.06-2.02,0-3.4-1.38-3.4-3.3s1.34-3.29,3.17-3.29,3.14,1.34,3.14,3.29c0,.07-.01.17-.01.27ZM109.31,270.31h4.6c-.11-1.27-1.04-2.16-2.31-2.16s-2.18.89-2.29,2.16Z"/>
    <path class="cls-2" d="M121.86,267.45l-2.88,6.49h-.9l-2.87-6.49h.91l2.43,5.52,2.45-5.52h.86Z"/>
    <path class="cls-2" d="M128.55,270.96h-5.42c.1,1.36,1.13,2.26,2.55,2.26.79,0,1.49-.28,1.98-.85l.49.57c-.58.69-1.48,1.06-2.5,1.06-2.02,0-3.4-1.38-3.4-3.3s1.34-3.29,3.17-3.29,3.14,1.34,3.14,3.29c0,.07-.01.17-.01.27ZM123.12,270.31h4.6c-.11-1.27-1.04-2.16-2.31-2.16s-2.18.89-2.29,2.16Z"/>
    <path class="cls-2" d="M136.31,270.17v3.76h-.88v-3.67c0-1.37-.71-2.07-1.95-2.07-1.39,0-2.27.86-2.27,2.34v3.4h-.88v-6.49h.84v1.2c.47-.79,1.34-1.25,2.47-1.25,1.58,0,2.66.91,2.66,2.77Z"/>
    <path class="cls-2" d="M142.1,273.54c-.34.31-.86.46-1.37.46-1.22,0-1.9-.69-1.9-1.89v-3.92h-1.16v-.74h1.16v-1.42h.88v1.42h1.97v.74h-1.97v3.87c0,.76.39,1.18,1.12,1.18.36,0,.71-.11.96-.33l.31.63Z"/>
    <path class="cls-2" d="M142.8,270.69c0-1.92,1.41-3.29,3.3-3.29s3.29,1.37,3.29,3.29-1.39,3.3-3.29,3.3-3.3-1.38-3.3-3.3ZM148.51,270.69c0-1.52-1.02-2.53-2.4-2.53s-2.42,1.01-2.42,2.53,1.04,2.53,2.42,2.53,2.4-1.01,2.4-2.53Z"/>
    <path class="cls-2" d="M155.41,266.68v.76h2v.74h-1.97v5.75h-.88v-5.75h-1.16v-.74h1.16v-.8c0-1.16.69-1.92,1.96-1.92.48,0,.97.14,1.29.41l-.3.65c-.25-.21-.59-.32-.96-.32-.75,0-1.15.42-1.15,1.22Z"/>
    <path class="cls-2" d="M163.36,269.91v4.02h-.84v-1.01c-.39.67-1.16,1.07-2.23,1.07-1.47,0-2.37-.76-2.37-1.89,0-1,.64-1.84,2.5-1.84h2.06v-.39c0-1.11-.63-1.71-1.84-1.71-.84,0-1.63.3-2.16.76l-.39-.65c.65-.55,1.62-.88,2.64-.88,1.68,0,2.63.84,2.63,2.51ZM162.49,271.98v-1.06h-2.04c-1.26,0-1.66.49-1.66,1.16,0,.75.6,1.22,1.64,1.22s1.71-.47,2.06-1.32Z"/>
    <path class="cls-2" d="M171.06,267.45l-2.88,6.49h-.9l-2.87-6.49h.91l2.43,5.52,2.45-5.52h.86Z"/>
    <path class="cls-2" d="M171.46,270.69c0-1.92,1.41-3.29,3.3-3.29s3.29,1.37,3.29,3.29-1.39,3.3-3.29,3.3-3.3-1.38-3.3-3.3ZM177.16,270.69c0-1.52-1.02-2.53-2.4-2.53s-2.42,1.01-2.42,2.53,1.04,2.53,2.42,2.53,2.4-1.01,2.4-2.53Z"/>
    <path class="cls-2" d="M183.1,267.4v.85c-.07,0-.15-.01-.21-.01-1.36,0-2.18.86-2.18,2.39v3.3h-.88v-6.49h.84v1.27c.41-.86,1.23-1.32,2.43-1.32Z"/>
    <path class="cls-2" d="M184.48,265.4c0-.33.28-.62.64-.62s.64.27.64.6c0,.36-.27.64-.64.64s-.64-.28-.64-.63ZM184.68,267.45h.88v6.49h-.88v-6.49Z"/>
    <path class="cls-2" d="M191.41,273.54c-.34.31-.86.46-1.37.46-1.22,0-1.9-.69-1.9-1.89v-3.92h-1.16v-.74h1.16v-1.42h.88v1.42h1.97v.74h-1.97v3.87c0,.76.39,1.18,1.12,1.18.36,0,.71-.11.96-.33l.31.63Z"/>
    <path class="cls-2" d="M192.11,270.69c0-1.92,1.41-3.29,3.3-3.29s3.29,1.37,3.29,3.29-1.39,3.3-3.29,3.3-3.3-1.38-3.3-3.3ZM197.82,270.69c0-1.52-1.02-2.53-2.4-2.53s-2.42,1.01-2.42,2.53,1.04,2.53,2.42,2.53,2.4-1.01,2.4-2.53Z"/>
  </g>
  <g>
    <path class="cls-2" d="M101.01,219.54c0-12.26,0-24.52,0-36.78h8.3v5.48h13.8v-5.46h10.39v5.45h13.81v-5.44h8.29v.46c0,11.8,0,23.59,0,35.39,0,.51-.06,1.03-.17,1.53-.75,3.28-3.51,5.42-6.98,5.42-8.51,0-17.02,0-25.53,0-4.92,0-9.84,0-14.76,0-3.3,0-5.99-1.97-6.87-5.02-.1-.34-.18-.68-.27-1.02ZM105.84,192.44c0,.22,0,.41,0,.6,0,8.42.01,16.84-.01,25.26,0,1.45.96,2.44,2.44,2.43,13.36-.03,26.72-.03,40.08,0,1.45,0,2.44-.95,2.44-2.44-.03-8.42-.01-16.84-.01-25.26v-.6h-44.93Z"/>
    <path class="cls-2" d="M112.79,177.92h6.86v6.85h-6.86v-6.85Z"/>
    <path class="cls-2" d="M136.98,177.92h6.86v6.83h-6.86v-6.83Z"/>
    <path class="cls-2" d="M134.86,215.86c-1.6-.7-3.1-1.37-4.61-2.03-.66-.29-1.34-.78-2.01-.78-.65,0-1.3.5-1.95.78-1.48.65-2.95,1.3-4.43,1.95-.03.01-.07,0-.19.01.05-.54.09-1.08.15-1.61.18-1.69.39-3.39.55-5.08.02-.2-.11-.47-.26-.63-1.37-1.52-2.76-3.01-4.14-4.52-.12-.13-.23-.26-.39-.45,1.5-.31,2.94-.61,4.37-.91.76-.16,1.54-.29,2.29-.48.24-.06.5-.26.63-.47,1.14-1.9,2.24-3.82,3.39-5.79.43.74.83,1.43,1.24,2.11.71,1.21,1.43,2.41,2.11,3.64.2.36.47.48.83.55,2.14.43,4.27.87,6.5,1.33-.14.17-.23.3-.34.42-1.39,1.52-2.79,3.03-4.17,4.56-.16.18-.28.5-.25.74.2,2.1.44,4.2.66,6.3,0,.09.01.17.02.36Z"/>
  </g>
</svg>