<?xml version="1.0" encoding="UTF-8"?>
<svg id="Capa_1" data-name="Capa 1" xmlns="http://www.w3.org/2000/svg" version="1.1" viewBox="0 0 54.26 54.15">
  <defs>
    <style>
      .cls-1 {
        fill: #10295b;
        stroke-width: 0px;
      }
    </style>
  </defs>
  <path class="cls-1" d="M25.44,0c1.13,0,2.26,0,3.39,0,.14.03.27.08.41.09,4.09.31,7.94,1.45,11.46,3.55,7.19,4.29,11.6,10.54,13.15,18.77.18.98.28,1.98.42,2.97v3.38c-.13.97-.24,1.95-.41,2.92-2.15,12.5-12.78,21.89-25.48,22.43-6.63.28-12.63-1.59-17.87-5.67C5.01,44.16,1.63,38.56.41,31.69c-.17-.97-.27-1.95-.41-2.92,0-1.13,0-2.26,0-3.38.08-.64.15-1.29.24-1.93.78-5.51,3-10.36,6.74-14.48C11.16,4.36,16.34,1.48,22.51.41c.97-.17,1.95-.27,2.93-.41ZM28.49,27.08c.29-.23.47-.34.62-.49,1.81-1.8,3.64-3.6,5.43-5.42,1.43-1.45,1.69-3.61.7-5.48-.95-1.8-2.87-2.76-4.87-2.44-1.07.17-1.96.67-2.71,1.42-3.39,3.39-6.8,6.77-10.18,10.17-1.36,1.36-1.37,3.01-.04,4.35,3.41,3.42,6.84,6.83,10.26,10.24.89.89,1.96,1.44,3.24,1.49,1.92.07,3.78-1.14,4.57-2.94.78-1.76.41-3.67-1.06-5.15-1.77-1.79-3.58-3.56-5.37-5.33-.14-.13-.31-.23-.59-.42Z"/>
</svg>