<?xml version="1.0" encoding="UTF-8"?>
<svg id="Capa_1" data-name="Capa 1" xmlns="http://www.w3.org/2000/svg" xmlns:xlink="http://www.w3.org/1999/xlink" viewBox="0 0 111.14 48.06">
  <defs>
    <style>
      .cls-1 {
        fill: #000;
      }

      .cls-1, .cls-2, .cls-3 {
        stroke-width: 0px;
      }

      .cls-2 {
        fill: none;
      }

      .cls-4 {
        clip-path: url(#clippath);
      }

      .cls-3 {
        fill: #fff;
      }
    </style>
    <clipPath id="clippath">
      <rect class="cls-2" x="-662.75" y="187.35" width="1366" height="768"/>
    </clipPath>
  </defs>
  <g class="cls-4">
    <path class="cls-1" d="M789.11,41.17c0,424.63-344.23,768.86-768.86,768.86S-748.61,465.8-748.61,41.17-404.38-727.69,20.25-727.69,789.11-383.46,789.11,41.17"/>
  </g>
  <g>
    <path class="cls-3" d="M43.44,38.18c2.9-3.97,4.62-8.86,4.62-14.15C48.06,10.78,37.28,0,24.03,0S0,10.78,0,24.03c0,5.29,1.72,10.17,4.62,14.15C2.05,38.35.01,40.49.01,43.11s2.22,4.95,4.95,4.95h38.15c2.73,0,4.95-2.22,4.95-4.95s-2.04-4.76-4.62-4.93ZM24.03,9.9c7.79,0,14.13,6.34,14.13,14.13s-6.34,14.13-14.13,14.13-14.13-6.34-14.13-14.13,6.34-14.13,14.13-14.13Z"/>
    <path class="cls-3" d="M106.08,48.05c-2.8,0-5.06-2.27-5.06-5.06v-26.34l-11.01,10.2c-1.94,1.8-4.93,1.8-6.88,0l-11.01-10.17v26.31c0,2.8-2.27,5.06-5.06,5.06s-5.06-2.27-5.06-5.06V5.12c0-2.01,1.19-3.83,3.03-4.64,1.84-.81,3.99-.45,5.46.92l16.07,14.85L102.63,1.35c1.47-1.37,3.62-1.73,5.47-.93,1.84.81,3.04,2.63,3.04,4.64v37.93c0,2.8-2.27,5.06-5.06,5.06"/>
  </g>
</svg>