<?xml version="1.0" encoding="UTF-8"?>
<svg id="Capa_1" data-name="Capa 1" xmlns="http://www.w3.org/2000/svg" xmlns:xlink="http://www.w3.org/1999/xlink" viewBox="0 0 425.09 143.24">
  <defs>
    <style>
      .cls-1 {
        fill: #000;
      }

      .cls-1, .cls-2, .cls-3, .cls-4 {
        stroke-width: 0px;
      }

      .cls-2 {
        fill: none;
      }

      .cls-5 {
        clip-path: url(#clippath);
      }

      .cls-3 {
        fill: #10295b;
      }

      .cls-4 {
        fill: #fff;
      }
    </style>
    <clipPath id="clippath">
      <rect class="cls-2" x="357.89" y="688.73" width="1366" height="768"/>
    </clipPath>
  </defs>
  <g>
    <rect class="cls-1" x="165.26" y="-64.73" width="94.56" height="276.28" transform="translate(138.58 285.76) rotate(-89.85)"/>
    <g>
      <path class="cls-1" d="M70.12,143.24l-47.6-.12C10.05,143.09-.03,132.95,0,120.48L.26,22.52C.29,10.05,10.42-.03,22.9,0l47.6.13c12.47.03,22.56,10.17,22.53,22.64l-.26,97.96c-.04,12.47-10.17,22.55-22.64,22.52h0ZM70.12,143.24"/>
      <path class="cls-1" d="M402.69,141.7l-46.57-.12c-12.2-.03-22.07-9.95-22.04-22.15l.25-95.85c.03-12.2,9.95-22.07,22.16-22.03l46.57.12c12.2.03,22.07,9.95,22.03,22.15l-.25,95.85c-.03,12.2-9.95,22.07-22.15,22.04h0ZM402.69,141.7"/>
    </g>
  </g>
  <g>
    <path class="cls-4" d="M107.16,64.62c0,3.32-2.49,5.38-6.47,5.38h-3v4.11h-3.45v-14.9h6.45c3.98,0,6.47,2.06,6.47,5.41ZM103.67,64.62c0-1.64-1.06-2.6-3.17-2.6h-2.81v5.17h2.81c2.11,0,3.17-.96,3.17-2.58Z"/>
    <path class="cls-4" d="M118.68,70.92h-6.92l-1.32,3.19h-3.53l6.64-14.9h3.41l6.66,14.9h-3.62l-1.32-3.19ZM117.59,68.3l-2.36-5.7-2.36,5.7h4.73Z"/>
    <path class="cls-4" d="M135.03,66.43h3.15v6.05c-1.64,1.23-3.9,1.89-6.02,1.89-4.68,0-8.13-3.21-8.13-7.71s3.45-7.71,8.2-7.71c2.62,0,4.79.89,6.24,2.58l-2.21,2.04c-1.08-1.15-2.34-1.68-3.85-1.68-2.89,0-4.87,1.94-4.87,4.77s1.98,4.77,4.83,4.77c.94,0,1.81-.17,2.68-.64v-4.37Z"/>
    <path class="cls-4" d="M151.18,70.92h-6.92l-1.32,3.19h-3.53l6.64-14.9h3.41l6.66,14.9h-3.62l-1.32-3.19ZM150.1,68.3l-2.36-5.7-2.36,5.7h4.73Z"/>
    <path class="cls-4" d="M166.79,62.02h-4.77v-2.81h12.98v2.81h-4.77v12.09h-3.45v-12.09Z"/>
    <path class="cls-4" d="M176.47,67.55v-8.34h3.45v8.22c0,2.83,1.24,4,3.32,4s3.32-1.17,3.32-4v-8.22h3.41v8.34c0,4.38-2.51,6.81-6.75,6.81s-6.75-2.43-6.75-6.81Z"/>
    <path class="cls-4" d="M212.96,74.11l-.02-8.94-4.38,7.37h-1.55l-4.36-7.17v8.75h-3.24v-14.9h2.85l5.58,9.26,5.49-9.26h2.83l.04,14.9h-3.24Z"/>
    <path class="cls-4" d="M231.26,71.34v2.77h-11.54v-14.9h11.26v2.77h-7.83v3.23h6.92v2.68h-6.92v3.45h8.11Z"/>
    <path class="cls-4" d="M247.67,59.21v14.9h-2.83l-7.43-9.05v9.05h-3.41v-14.9h2.85l7.41,9.05v-9.05h3.41Z"/>
    <path class="cls-4" d="M250.04,72.64l1.17-2.6c1.26.92,3.13,1.55,4.92,1.55,2.04,0,2.87-.68,2.87-1.6,0-2.79-8.66-.87-8.66-6.41,0-2.53,2.04-4.64,6.28-4.64,1.87,0,3.79.45,5.17,1.32l-1.06,2.62c-1.38-.79-2.81-1.17-4.13-1.17-2.04,0-2.83.77-2.83,1.7,0,2.75,8.66.85,8.66,6.32,0,2.49-2.06,4.62-6.32,4.62-2.36,0-4.75-.7-6.07-1.72Z"/>
    <path class="cls-4" d="M264.66,67.55v-8.34h3.45v8.22c0,2.83,1.24,4,3.32,4s3.32-1.17,3.32-4v-8.22h3.41v8.34c0,4.38-2.51,6.81-6.75,6.81s-6.75-2.43-6.75-6.81Z"/>
    <path class="cls-4" d="M291.05,70.92h-6.92l-1.32,3.19h-3.53l6.64-14.9h3.41l6.66,14.9h-3.62l-1.32-3.19ZM289.97,68.3l-2.36-5.7-2.36,5.7h4.73Z"/>
    <path class="cls-4" d="M297.54,59.21h3.45v12.09h7.47v2.81h-10.92v-14.9Z"/>
    <path class="cls-4" d="M310.4,59.21h3.45v14.9h-3.45v-14.9Z"/>
    <path class="cls-4" d="M317.38,59.21h6.77c4.87,0,8.22,2.94,8.22,7.45s-3.34,7.45-8.22,7.45h-6.77v-14.9ZM323.98,71.28c2.96,0,4.9-1.77,4.9-4.62s-1.94-4.62-4.9-4.62h-3.15v9.24h3.15Z"/>
    <path class="cls-4" d="M344.57,70.92h-6.92l-1.32,3.19h-3.53l6.64-14.9h3.41l6.66,14.9h-3.62l-1.32-3.19ZM343.48,68.3l-2.36-5.7-2.36,5.7h4.73Z"/>
    <path class="cls-4" d="M351.06,59.21h6.77c4.87,0,8.22,2.94,8.22,7.45s-3.34,7.45-8.22,7.45h-6.77v-14.9ZM357.66,71.28c2.96,0,4.9-1.77,4.9-4.62s-1.94-4.62-4.9-4.62h-3.15v9.24h3.15Z"/>
  </g>
  <g>
    <path class="cls-4" d="M102.84,83.83v8.63h-.88v-6.9l-3.39,5.81h-.43l-3.39-5.77v6.87h-.88v-8.63h.75l3.75,6.4,3.71-6.4h.75Z"/>
    <path class="cls-4" d="M110.36,88.45v4.02h-.84v-1.01c-.39.67-1.16,1.07-2.23,1.07-1.47,0-2.37-.76-2.37-1.88,0-1,.64-1.84,2.5-1.84h2.06v-.39c0-1.11-.63-1.71-1.84-1.71-.84,0-1.63.29-2.16.76l-.39-.65c.65-.55,1.62-.88,2.64-.88,1.68,0,2.63.84,2.63,2.52ZM109.48,90.52v-1.06h-2.03c-1.26,0-1.67.49-1.67,1.16,0,.75.6,1.22,1.64,1.22s1.71-.47,2.06-1.32Z"/>
    <path class="cls-4" d="M118.7,88.7v3.76h-.88v-3.67c0-1.37-.71-2.07-1.95-2.07-1.39,0-2.27.86-2.27,2.34v3.4h-.88v-6.49h.84v1.2c.47-.79,1.34-1.25,2.47-1.25,1.58,0,2.66.91,2.66,2.77Z"/>
    <path class="cls-4" d="M124.49,92.07c-.34.31-.86.46-1.37.46-1.22,0-1.9-.69-1.9-1.88v-3.92h-1.16v-.74h1.16v-1.42h.88v1.42h1.97v.74h-1.97v3.87c0,.77.39,1.18,1.12,1.18.36,0,.71-.11.96-.33l.31.63Z"/>
    <path class="cls-4" d="M131.5,89.49h-5.42c.1,1.36,1.13,2.26,2.55,2.26.79,0,1.49-.29,1.99-.85l.49.57c-.58.69-1.48,1.06-2.5,1.06-2.02,0-3.4-1.38-3.4-3.3s1.34-3.29,3.17-3.29,3.14,1.34,3.14,3.29c0,.07-.01.17-.01.27ZM126.07,88.84h4.6c-.11-1.27-1.04-2.16-2.31-2.16s-2.18.89-2.29,2.16ZM128.42,84.98h-.86l1.69-1.53h1.17l-2,1.53Z"/>
    <path class="cls-4" d="M139.26,88.7v3.76h-.88v-3.67c0-1.37-.71-2.07-1.95-2.07-1.39,0-2.27.86-2.27,2.34v3.4h-.88v-6.49h.84v1.2c.47-.79,1.34-1.25,2.47-1.25,1.58,0,2.66.91,2.66,2.77Z"/>
    <path class="cls-4" d="M148.28,92.07c-.35.31-.86.46-1.37.46-1.22,0-1.9-.69-1.9-1.88v-3.92h-1.16v-.74h1.16v-1.42h.88v1.42h1.97v.74h-1.97v3.87c0,.77.39,1.18,1.12,1.18.36,0,.71-.11.96-.33l.31.63Z"/>
    <path class="cls-4" d="M155.71,85.98v6.49h-.84v-1.18c-.46.79-1.29,1.24-2.33,1.24-1.65,0-2.74-.92-2.74-2.79v-3.76h.88v3.68c0,1.38.71,2.08,1.95,2.08,1.36,0,2.21-.88,2.21-2.35v-3.4h.88Z"/>
    <path class="cls-4" d="M172.09,88.7v3.76h-.88v-3.67c0-1.37-.69-2.07-1.86-2.07-1.33,0-2.17.86-2.17,2.34v3.4h-.88v-3.67c0-1.37-.69-2.07-1.87-2.07-1.32,0-2.17.86-2.17,2.34v3.4h-.88v-6.49h.84v1.18c.46-.78,1.29-1.23,2.38-1.23s1.91.46,2.31,1.37c.47-.84,1.39-1.37,2.56-1.37,1.58,0,2.61.91,2.61,2.77Z"/>
    <path class="cls-4" d="M180.13,89.49h-5.42c.1,1.36,1.13,2.26,2.55,2.26.79,0,1.49-.29,1.98-.85l.49.57c-.58.69-1.48,1.06-2.5,1.06-2.02,0-3.4-1.38-3.4-3.3s1.34-3.29,3.17-3.29,3.14,1.34,3.14,3.29c0,.07-.01.17-.01.27ZM174.71,88.84h4.6c-.11-1.27-1.04-2.16-2.31-2.16s-2.18.89-2.29,2.16Z"/>
    <path class="cls-4" d="M192.63,88.7v3.76h-.88v-3.67c0-1.37-.69-2.07-1.86-2.07-1.33,0-2.17.86-2.17,2.34v3.4h-.88v-3.67c0-1.37-.69-2.07-1.87-2.07-1.32,0-2.17.86-2.17,2.34v3.4h-.88v-6.49h.84v1.18c.46-.78,1.29-1.23,2.38-1.23s1.91.46,2.31,1.37c.47-.84,1.39-1.37,2.56-1.37,1.58,0,2.61.91,2.61,2.77Z"/>
    <path class="cls-4" d="M201.58,89.22c0,1.96-1.38,3.3-3.23,3.3-1.07,0-1.97-.47-2.5-1.34v1.28h-.84v-9.15h.88v3.9c.54-.84,1.43-1.28,2.47-1.28,1.85,0,3.23,1.33,3.23,3.29ZM200.7,89.22c0-1.52-1.05-2.53-2.42-2.53s-2.42,1.01-2.42,2.53,1.04,2.53,2.42,2.53,2.42-1.01,2.42-2.53Z"/>
    <path class="cls-4" d="M206.63,85.93v.85c-.07,0-.15-.01-.21-.01-1.36,0-2.18.86-2.18,2.39v3.3h-.88v-6.49h.84v1.27c.41-.86,1.23-1.32,2.43-1.32Z"/>
    <path class="cls-4" d="M213.79,89.49h-5.42c.1,1.36,1.13,2.26,2.55,2.26.79,0,1.49-.29,1.98-.85l.49.57c-.58.69-1.48,1.06-2.5,1.06-2.02,0-3.4-1.38-3.4-3.3s1.34-3.29,3.17-3.29,3.14,1.34,3.14,3.29c0,.07-.01.17-.01.27ZM208.37,88.84h4.6c-.11-1.27-1.04-2.16-2.31-2.16s-2.18.89-2.29,2.16Z"/>
    <path class="cls-4" d="M214.69,91.72l.39-.69c.52.41,1.39.73,2.31.73,1.23,0,1.74-.42,1.74-1.06,0-1.69-4.2-.36-4.2-2.92,0-1.06.91-1.85,2.56-1.85.84,0,1.75.23,2.29.6l-.38.7c-.57-.39-1.25-.55-1.91-.55-1.17,0-1.69.46-1.69,1.07,0,1.75,4.2.43,4.2,2.92,0,1.12-.99,1.85-2.68,1.85-1.07,0-2.11-.34-2.64-.8Z"/>
    <path class="cls-4" d="M222.94,83.45h1.17l-2,1.53h-.86l1.69-1.53ZM221.61,85.98h.88v6.49h-.88v-6.49Z"/>
    <path class="cls-4" d="M229.82,88.45v4.02h-.84v-1.01c-.39.67-1.16,1.07-2.23,1.07-1.47,0-2.37-.76-2.37-1.88,0-1,.64-1.84,2.5-1.84h2.06v-.39c0-1.11-.63-1.71-1.84-1.71-.84,0-1.63.29-2.16.76l-.39-.65c.65-.55,1.62-.88,2.64-.88,1.68,0,2.63.84,2.63,2.52ZM228.95,90.52v-1.06h-2.04c-1.26,0-1.66.49-1.66,1.16,0,.75.6,1.22,1.64,1.22s1.71-.47,2.06-1.32Z"/>
    <path class="cls-4" d="M240.32,88.45v4.02h-.84v-1.01c-.39.67-1.16,1.07-2.23,1.07-1.47,0-2.37-.76-2.37-1.88,0-1,.64-1.84,2.5-1.84h2.06v-.39c0-1.11-.63-1.71-1.84-1.71-.84,0-1.63.29-2.16.76l-.39-.65c.65-.55,1.62-.88,2.64-.88,1.68,0,2.63.84,2.63,2.52ZM239.45,90.52v-1.06h-2.04c-1.26,0-1.66.49-1.66,1.16,0,.75.6,1.22,1.64,1.22s1.71-.47,2.06-1.32Z"/>
    <path class="cls-4" d="M242.07,89.22c0-1.94,1.41-3.29,3.34-3.29,1.1,0,2.02.43,2.54,1.28l-.65.44c-.44-.65-1.13-.96-1.89-.96-1.42,0-2.45,1.01-2.45,2.53s1.04,2.53,2.45,2.53c.75,0,1.44-.3,1.89-.95l.65.44c-.52.84-1.44,1.28-2.54,1.28-1.94,0-3.34-1.37-3.34-3.3Z"/>
    <path class="cls-4" d="M253.15,92.07c-.34.31-.86.46-1.37.46-1.22,0-1.9-.69-1.9-1.88v-3.92h-1.16v-.74h1.16v-1.42h.88v1.42h1.97v.74h-1.97v3.87c0,.77.39,1.18,1.12,1.18.36,0,.71-.11.96-.33l.31.63Z"/>
    <path class="cls-4" d="M254.54,83.93c0-.33.28-.62.64-.62s.64.27.64.6c0,.36-.27.64-.64.64s-.64-.28-.64-.63ZM254.74,85.98h.88v6.49h-.88v-6.49Z"/>
    <path class="cls-4" d="M263.5,85.98l-2.88,6.49h-.9l-2.87-6.49h.91l2.43,5.52,2.45-5.52h.86Z"/>
    <path class="cls-4" d="M269.43,88.45v4.02h-.84v-1.01c-.39.67-1.16,1.07-2.23,1.07-1.47,0-2.37-.76-2.37-1.88,0-1,.64-1.84,2.5-1.84h2.06v-.39c0-1.11-.63-1.71-1.84-1.71-.84,0-1.63.29-2.16.76l-.39-.65c.65-.55,1.62-.88,2.64-.88,1.68,0,2.63.84,2.63,2.52ZM268.56,90.52v-1.06h-2.04c-1.26,0-1.66.49-1.66,1.16,0,.75.6,1.22,1.64,1.22s1.71-.47,2.06-1.32Z"/>
  </g>
  <g>
    <path class="cls-4" d="M48.89,97.2c-4.61,0-9.22,0-13.83,0-3.6,0-6.67-2.4-7.53-5.87-.16-.64-.23-1.32-.24-1.99-.02-6.08-.02-12.17,0-18.25,0-4.5,3.4-7.86,7.91-7.87.75,0,1.59.19,2.24-.08.65-.27,1.1-.99,1.64-1.53,3.66-3.66,7.32-7.33,10.99-10.99,3.84-3.84,9.33-3.84,13.17,0,3.54,3.54,7.09,7.09,10.63,10.63,3.84,3.84,3.84,9.33.02,13.17-.98.99-1.96,1.98-2.96,2.95-.27.26-.39.53-.39.92.01,3.72.03,7.44,0,11.16-.02,3.82-2.57,6.88-6.32,7.61-.52.1-1.06.14-1.6.14-4.57.01-9.15,0-13.72,0ZM48.92,94.1c4.57,0,9.15,0,13.72,0,2.8,0,4.8-1.96,4.82-4.76.02-6.1.02-12.2,0-18.3,0-1.82-.8-3.22-2.38-4.15-.83-.5-1.76-.6-2.71-.6-8.96,0-17.93,0-26.89,0-.1,0-.2,0-.3,0-2.88.06-4.79,2-4.79,4.89,0,6,0,12,0,18,0,.3,0,.61.04.9.37,2.39,2.24,4.01,4.66,4.01,4.61.01,9.21,0,13.82,0ZM54.27,63.21c.21,0,.38,0,.55,0,2.68,0,5.36,0,8.04,0,3.18.01,6.01,1.97,7.16,4.94.37.97.53,1.97.51,3-.01.69,0,1.39,0,2.08.06.03.12.07.18.1.32-.36.62-.74.95-1.08,2.63-2.65,2.64-6.19,0-8.84-2.82-2.82-5.64-5.64-8.46-8.46-.13-.13-.26-.24-.36-.34-2.86,2.86-5.69,5.69-8.58,8.59ZM60.59,52.42c-.09-.08-.13-.13-.18-.17-2.23-1.9-5.85-1.74-7.98.37-3.41,3.39-6.8,6.8-10.2,10.2-.1.1-.19.21-.36.4.26,0,.42,0,.58,0,2.3,0,4.59,0,6.89,0,.35,0,.59-.1.83-.34,3.35-3.36,6.7-6.71,10.05-10.07.12-.12.23-.24.37-.39Z"/>
    <path class="cls-4" d="M48.93,84.84c-4.57,0-9.15,0-13.72,0-.99,0-1.68-.58-1.72-1.45-.04-.86.56-1.55,1.43-1.64.17-.02.33,0,.5,0,9,0,17.99,0,26.99,0,.25,0,.51,0,.75.06.77.18,1.28.88,1.21,1.62-.07.76-.68,1.36-1.46,1.41-.35.02-.7,0-1.06,0-4.31,0-8.61,0-12.92,0Z"/>
    <path class="cls-4" d="M39.64,78.65c-.95,0-1.91,0-2.86,0-2.03-.02-3.29-1.28-3.29-3.3,0-.94-.01-1.88,0-2.81.03-1.83,1.3-3.13,3.14-3.16,2.03-.03,4.05-.03,6.08,0,1.77.02,3.04,1.26,3.12,3.03.05,1.07.05,2.15,0,3.22-.08,1.76-1.29,2.95-3.06,3.02-1.04.04-2.08,0-3.11,0,0,0,0,0,0,0ZM42.71,75.56v-3.06h-6.1v3.06h6.1Z"/>
    <path class="cls-4" d="M41.96,90.99c-.3,0-.6.02-.9,0-.78-.06-1.39-.73-1.4-1.51,0-.76.57-1.46,1.33-1.52.65-.05,1.31-.05,1.96,0,.79.06,1.35.75,1.34,1.55-.02.79-.62,1.43-1.42,1.49-.3.02-.6,0-.9,0,0,0,0,0,0,0Z"/>
    <path class="cls-4" d="M35.79,91c-.28,0-.57.01-.85,0-.82-.05-1.44-.69-1.44-1.51,0-.82.59-1.49,1.41-1.54.6-.03,1.21-.03,1.81,0,.81.05,1.43.76,1.41,1.55-.02.78-.64,1.44-1.42,1.49-.3.02-.6,0-.9,0,0,0,0,0,0,0Z"/>
    <path class="cls-4" d="M48.14,91c-.28,0-.57.01-.85,0-.82-.05-1.43-.7-1.44-1.51,0-.81.59-1.49,1.42-1.54.6-.03,1.21-.03,1.81,0,.79.05,1.39.72,1.4,1.51,0,.79-.62,1.48-1.43,1.54-.3.02-.6,0-.9,0,0,0,0,0,0,0Z"/>
  </g>
  <g class="cls-5">
    <path class="cls-3" d="M1809.75,542.55c0,424.63-344.23,768.86-768.86,768.86S272.03,967.18,272.03,542.55,616.26-226.32,1040.89-226.32s768.86,344.23,768.86,768.86"/>
  </g>
</svg>