<?xml version="1.0" encoding="UTF-8"?>
<svg id="Capa_1" data-name="Capa 1" xmlns="http://www.w3.org/2000/svg" xmlns:xlink="http://www.w3.org/1999/xlink" viewBox="0 0 425.19 143.28">
  <defs>
    <style>
      .cls-1 {
        fill: #000;
      }

      .cls-1, .cls-2, .cls-3, .cls-4 {
        stroke-width: 0px;
      }

      .cls-2 {
        fill: none;
      }

      .cls-5 {
        clip-path: url(#clippath);
      }

      .cls-3 {
        fill: #10295b;
      }

      .cls-4 {
        fill: #f4d100;
      }
    </style>
    <clipPath id="clippath">
      <rect class="cls-2" x="357.89" y="485.8" width="1366" height="768"/>
    </clipPath>
  </defs>
  <g>
    <rect class="cls-4" x="165.3" y="-64.75" width="94.58" height="276.34" transform="translate(138.61 285.82) rotate(-89.85)"/>
    <g>
      <path class="cls-4" d="M70.13,143.28l-47.61-.12C10.05,143.12-.03,132.98,0,120.51L.26,22.52C.29,10.05,10.43-.03,22.9,0l47.61.13c12.48.03,22.56,10.17,22.53,22.64l-.26,97.98c-.04,12.47-10.17,22.56-22.65,22.53h0ZM70.13,143.28"/>
      <path class="cls-4" d="M402.78,141.74l-46.59-.12c-12.21-.03-22.08-9.96-22.05-22.16l.25-95.87c.03-12.2,9.95-22.07,22.16-22.04l46.59.12c12.2.03,22.07,9.95,22.04,22.16l-.25,95.87c-.03,12.2-9.95,22.07-22.16,22.04h0ZM402.78,141.74"/>
    </g>
  </g>
  <g>
    <path class="cls-1" d="M93.31,74.54c0-4.49,3.45-7.71,8.09-7.71,2.58,0,4.73.94,6.13,2.64l-2.21,2.04c-1-1.15-2.26-1.75-3.75-1.75-2.79,0-4.77,1.96-4.77,4.77s1.98,4.77,4.77,4.77c1.49,0,2.75-.6,3.75-1.77l2.21,2.04c-1.4,1.72-3.55,2.66-6.15,2.66-4.62,0-8.07-3.21-8.07-7.71Z"/>
    <path class="cls-1" d="M108.59,74.54c0-4.43,3.45-7.71,8.15-7.71s8.15,3.26,8.15,7.71-3.47,7.71-8.15,7.71-8.15-3.28-8.15-7.71ZM121.4,74.54c0-2.83-2-4.77-4.66-4.77s-4.66,1.94-4.66,4.77,2,4.77,4.66,4.77,4.66-1.94,4.66-4.77Z"/>
    <path class="cls-1" d="M141.05,81.99l-.02-8.94-4.38,7.37h-1.55l-4.36-7.17v8.75h-3.24v-14.9h2.85l5.58,9.26,5.49-9.26h2.83l.04,14.9h-3.24Z"/>
    <path class="cls-1" d="M160.74,72.5c0,3.32-2.49,5.38-6.47,5.38h-3v4.11h-3.45v-14.9h6.45c3.98,0,6.47,2.06,6.47,5.41ZM157.25,72.5c0-1.64-1.06-2.6-3.17-2.6h-2.81v5.17h2.81c2.11,0,3.17-.96,3.17-2.58Z"/>
    <path class="cls-1" d="M172.68,81.99l-2.87-4.15h-3.17v4.15h-3.45v-14.9h6.45c3.98,0,6.47,2.06,6.47,5.41,0,2.23-1.13,3.87-3.07,4.7l3.34,4.79h-3.7ZM169.45,69.9h-2.81v5.19h2.81c2.11,0,3.17-.98,3.17-2.6s-1.06-2.6-3.17-2.6Z"/>
    <path class="cls-1" d="M188.65,78.8h-6.92l-1.32,3.19h-3.53l6.64-14.9h3.41l6.66,14.9h-3.62l-1.32-3.19ZM187.56,76.18l-2.36-5.7-2.36,5.7h4.73Z"/>
    <path class="cls-1" d="M204.63,81.99l-2.87-4.15h-3.17v4.15h-3.45v-14.9h6.45c3.98,0,6.47,2.06,6.47,5.41,0,2.23-1.13,3.87-3.07,4.7l3.34,4.79h-3.7ZM201.4,69.9h-2.81v5.19h2.81c2.11,0,3.17-.98,3.17-2.6s-1.06-2.6-3.17-2.6Z"/>
    <path class="cls-1" d="M226.62,78.8h-6.92l-1.32,3.19h-3.53l6.64-14.9h3.41l6.66,14.9h-3.62l-1.32-3.19ZM225.53,76.18l-2.36-5.7-2.36,5.7h4.73Z"/>
    <path class="cls-1" d="M242.61,81.99l-2.87-4.15h-3.17v4.15h-3.45v-14.9h6.45c3.98,0,6.47,2.06,6.47,5.41,0,2.23-1.13,3.87-3.07,4.7l3.34,4.79h-3.7ZM239.37,69.9h-2.81v5.19h2.81c2.11,0,3.17-.98,3.17-2.6s-1.06-2.6-3.17-2.6Z"/>
    <path class="cls-1" d="M251.63,69.9h-4.77v-2.81h12.98v2.81h-4.77v12.09h-3.45v-12.09Z"/>
    <path class="cls-1" d="M264.36,62.81h3.58l-3.85,3.07h-2.6l2.87-3.07ZM261.7,67.09h3.45v14.9h-3.45v-14.9Z"/>
    <path class="cls-1" d="M267.74,74.54c0-4.49,3.45-7.71,8.09-7.71,2.58,0,4.73.94,6.13,2.64l-2.21,2.04c-1-1.15-2.26-1.75-3.75-1.75-2.79,0-4.77,1.96-4.77,4.77s1.98,4.77,4.77,4.77c1.49,0,2.75-.6,3.75-1.77l2.21,2.04c-1.4,1.72-3.55,2.66-6.15,2.66-4.62,0-8.07-3.21-8.07-7.71Z"/>
    <path class="cls-1" d="M284.03,75.43v-8.34h3.45v8.22c0,2.83,1.24,4,3.32,4s3.32-1.17,3.32-4v-8.22h3.41v8.34c0,4.38-2.51,6.81-6.75,6.81s-6.75-2.43-6.75-6.81Z"/>
    <path class="cls-1" d="M300.93,67.09h3.45v12.09h7.47v2.81h-10.92v-14.9Z"/>
    <path class="cls-1" d="M312.59,74.54c0-4.43,3.45-7.71,8.15-7.71s8.15,3.26,8.15,7.71-3.47,7.71-8.15,7.71-8.15-3.28-8.15-7.71ZM325.41,74.54c0-2.83-2-4.77-4.66-4.77s-4.66,1.94-4.66,4.77,2,4.77,4.66,4.77,4.66-1.94,4.66-4.77Z"/>
    <path class="cls-1" d="M330.33,80.52l1.17-2.6c1.26.92,3.13,1.55,4.92,1.55,2.04,0,2.87-.68,2.87-1.6,0-2.79-8.66-.87-8.66-6.41,0-2.53,2.04-4.64,6.28-4.64,1.87,0,3.79.45,5.17,1.32l-1.06,2.62c-1.38-.79-2.81-1.17-4.13-1.17-2.04,0-2.83.77-2.83,1.7,0,2.75,8.66.85,8.66,6.32,0,2.49-2.06,4.62-6.32,4.62-2.36,0-4.75-.7-6.07-1.72Z"/>
  </g>
  <g>
    <path class="cls-1" d="M93.88,91.71h.91v7.84h4.83v.79h-5.75v-8.63Z"/>
    <path class="cls-1" d="M100.96,91.19h.88v9.15h-.88v-9.15Z"/>
    <path class="cls-1" d="M109.16,96.32v4.02h-.84v-1.01c-.39.67-1.16,1.07-2.23,1.07-1.47,0-2.37-.76-2.37-1.89,0-1,.64-1.84,2.5-1.84h2.06v-.39c0-1.11-.63-1.71-1.84-1.71-.84,0-1.63.29-2.16.76l-.39-.65c.65-.55,1.62-.88,2.64-.88,1.68,0,2.63.84,2.63,2.51ZM108.29,98.39v-1.06h-2.03c-1.26,0-1.67.49-1.67,1.16,0,.75.6,1.22,1.64,1.22s1.71-.47,2.06-1.32Z"/>
    <path class="cls-1" d="M116.87,93.86l-2.88,6.49h-.9l-2.87-6.49h.91l2.43,5.52,2.45-5.52h.86Z"/>
    <path class="cls-1" d="M123.56,97.37h-5.42c.1,1.36,1.13,2.26,2.55,2.26.79,0,1.49-.28,1.98-.85l.49.57c-.58.69-1.48,1.06-2.5,1.06-2.02,0-3.4-1.38-3.4-3.3s1.34-3.29,3.17-3.29,3.14,1.34,3.14,3.29c0,.07-.01.17-.01.27ZM118.13,96.72h4.6c-.11-1.27-1.04-2.16-2.31-2.16s-2.18.89-2.29,2.16Z"/>
    <path class="cls-1" d="M124.46,99.6l.39-.69c.52.41,1.39.73,2.31.73,1.23,0,1.74-.42,1.74-1.06,0-1.69-4.2-.36-4.2-2.92,0-1.06.91-1.85,2.56-1.85.84,0,1.75.23,2.29.6l-.38.7c-.57-.39-1.25-.55-1.91-.55-1.17,0-1.69.46-1.69,1.07,0,1.75,4.2.43,4.2,2.92,0,1.12-.99,1.85-2.68,1.85-1.07,0-2.11-.34-2.64-.8Z"/>
    <path class="cls-1" d="M132.13,99.73c0,.21-.05.37-.17.71l-.52,1.7h-.59l.42-1.79c-.26-.07-.44-.31-.44-.63,0-.38.28-.67.65-.67s.65.3.65.67Z"/>
    <path class="cls-1" d="M140.64,99.95c-.35.31-.86.46-1.37.46-1.22,0-1.9-.69-1.9-1.89v-3.92h-1.16v-.74h1.16v-1.42h.88v1.42h1.97v.74h-1.97v3.87c0,.76.39,1.18,1.12,1.18.36,0,.71-.11.96-.33l.31.63Z"/>
    <path class="cls-1" d="M141.34,97.1c0-1.92,1.41-3.29,3.3-3.29s3.29,1.37,3.29,3.29-1.39,3.3-3.29,3.3-3.3-1.38-3.3-3.3ZM147.05,97.1c0-1.52-1.02-2.53-2.4-2.53s-2.42,1.01-2.42,2.53,1.04,2.53,2.42,2.53,2.4-1.01,2.4-2.53Z"/>
    <path class="cls-1" d="M154.58,96.32v4.02h-.84v-1.01c-.39.67-1.16,1.07-2.23,1.07-1.47,0-2.37-.76-2.37-1.89,0-1,.64-1.84,2.5-1.84h2.06v-.39c0-1.11-.63-1.71-1.84-1.71-.84,0-1.63.29-2.16.76l-.39-.65c.65-.55,1.62-.88,2.64-.88,1.68,0,2.63.84,2.63,2.51ZM153.7,98.39v-1.06h-2.03c-1.26,0-1.67.49-1.67,1.16,0,.75.6,1.22,1.64,1.22s1.71-.47,2.06-1.32Z"/>
    <path class="cls-1" d="M156.95,91.19h.88v9.15h-.88v-9.15Z"/>
    <path class="cls-1" d="M160.27,91.19h.88v9.15h-.88v-9.15Z"/>
    <path class="cls-1" d="M168.48,96.32v4.02h-.84v-1.01c-.39.67-1.16,1.07-2.23,1.07-1.47,0-2.37-.76-2.37-1.89,0-1,.64-1.84,2.5-1.84h2.06v-.39c0-1.11-.63-1.71-1.84-1.71-.84,0-1.63.29-2.16.76l-.39-.65c.65-.55,1.62-.88,2.64-.88,1.68,0,2.63.84,2.63,2.51ZM167.6,98.39v-1.06h-2.04c-1.26,0-1.66.49-1.66,1.16,0,.75.6,1.22,1.64,1.22s1.71-.47,2.06-1.32Z"/>
    <path class="cls-1" d="M169.95,99.6l.39-.69c.52.41,1.39.73,2.31.73,1.23,0,1.74-.42,1.74-1.06,0-1.69-4.2-.36-4.2-2.92,0-1.06.91-1.85,2.56-1.85.84,0,1.75.23,2.29.6l-.38.7c-.57-.39-1.25-.55-1.91-.55-1.17,0-1.69.46-1.69,1.07,0,1.75,4.2.43,4.2,2.92,0,1.12-.99,1.85-2.68,1.85-1.07,0-2.11-.34-2.64-.8Z"/>
    <path class="cls-1" d="M185.56,93.86l-3.24,7.26c-.54,1.27-1.23,1.68-2.16,1.68-.6,0-1.18-.2-1.58-.59l.41-.65c.32.32.71.49,1.18.49.58,0,.97-.27,1.34-1.08l.28-.63-2.9-6.47h.91l2.44,5.51,2.44-5.51h.86Z"/>
    <path class="cls-1" d="M200.72,96.58v3.76h-.88v-3.67c0-1.37-.69-2.07-1.86-2.07-1.33,0-2.17.86-2.17,2.34v3.4h-.88v-3.67c0-1.37-.69-2.07-1.87-2.07-1.32,0-2.17.86-2.17,2.34v3.4h-.88v-6.49h.84v1.18c.46-.78,1.29-1.23,2.38-1.23s1.91.46,2.31,1.37c.47-.84,1.39-1.37,2.56-1.37,1.58,0,2.61.91,2.61,2.77Z"/>
    <path class="cls-1" d="M207.99,96.32v4.02h-.84v-1.01c-.39.67-1.16,1.07-2.23,1.07-1.47,0-2.37-.76-2.37-1.89,0-1,.64-1.84,2.5-1.84h2.06v-.39c0-1.11-.63-1.71-1.84-1.71-.84,0-1.63.29-2.16.76l-.39-.65c.65-.55,1.62-.88,2.64-.88,1.68,0,2.63.84,2.63,2.51ZM207.11,98.39v-1.06h-2.03c-1.26,0-1.67.49-1.67,1.16,0,.75.6,1.22,1.64,1.22s1.71-.47,2.06-1.32ZM205.45,92.86h-.86l1.69-1.53h1.17l-2,1.53Z"/>
    <path class="cls-1" d="M209.46,99.6l.39-.69c.52.41,1.39.73,2.31.73,1.23,0,1.74-.42,1.74-1.06,0-1.69-4.2-.36-4.2-2.92,0-1.06.91-1.85,2.56-1.85.84,0,1.75.23,2.29.6l-.38.7c-.57-.39-1.25-.55-1.91-.55-1.17,0-1.69.46-1.69,1.07,0,1.75,4.2.43,4.2,2.92,0,1.12-.99,1.85-2.68,1.85-1.07,0-2.11-.34-2.64-.8Z"/>
  </g>
  <path class="cls-1" d="M46.07,66.26c-.73-5.93,3.85-10.43,8.93-10.55,1.82-.04,3.52.38,5.09,1.32,1.58.96,2.75,2.29,3.56,3.95.8,1.65.89,3.42.83,5.28h.63c1.4,0,2.8,0,4.2,0,1.63,0,2.31.69,2.31,2.34,0,4.82,0,22.41,0,26.39,0,3.41-2.18,5.58-5.58,5.58-7.25,0-14.51,0-21.76,0-2.65,0-4.76-1.74-5.24-4.29-.08-.41-.08-.84-.08-1.25,0-8.83,0-17.67,0-26.5,0-1.56.71-2.25,2.28-2.25,1.59,0,3.19,0,4.83,0ZM42.79,70.12c0,.25,0,.45,0,.65,0,8.07,0,16.15,0,24.22,0,1.27.47,1.74,1.73,1.74,7.15,0,14.3,0,21.46,0,1.35,0,1.8-.44,1.8-1.79,0-8.05,0-16.11,0-24.16v-.65h-3.25v4.2c.24.02.44.03.63.04,1.01.09,1.75.87,1.77,1.85.02,1-.66,1.89-1.67,1.92-1.79.07-3.59.07-5.39,0-.99-.03-1.71-.94-1.7-1.91.02-.98.76-1.77,1.76-1.87.23-.02.46-.04.68-.07v-4.18h-10.62v4.2c.25.02.45.02.65.04,1,.09,1.75.89,1.77,1.86.02.97-.69,1.88-1.69,1.92-1.79.06-3.6.06-5.39,0-1-.04-1.69-.92-1.68-1.92.01-.99.74-1.76,1.75-1.86.21-.02.43-.04.64-.05v-4.21h-3.25ZM60.56,66.23c.45-2.28-.42-4.52-2.23-5.76-1.79-1.22-4.21-1.23-6.05-.04-1.84,1.2-2.72,3.4-2.29,5.8h10.57Z"/>
  <g class="cls-5">
    <path class="cls-3" d="M1809.75,339.61c0,424.63-344.23,768.86-768.86,768.86S272.03,764.25,272.03,339.61s344.23-768.86,768.86-768.86S1809.75-85.02,1809.75,339.61"/>
  </g>
</svg>